<?xml version="1.0" standalone="no"?>
<!DOCTYPE svg PUBLIC "-//W3C//DTD SVG 20010904//EN"
 "http://www.w3.org/TR/2001/REC-SVG-20010904/DTD/svg10.dtd">
<svg version="1.0" xmlns="http://www.w3.org/2000/svg"
 width="500.000000pt" height="100.000000pt" viewBox="0 0 500.000000 100.000000"
 preserveAspectRatio="xMidYMid meet">

<g transform="translate(0.000000,100.000000) scale(0.100000,-0.100000)"
fill="#000000" stroke="none">
<path d="M3020 919 c-14 -6 -50 -13 -80 -17 -55 -7 -55 -7 -58 -44 -3 -35 -1
-38 22 -38 53 0 56 -14 56 -231 0 -111 -4 -208 -10 -219 -5 -10 -21 -21 -35
-24 -21 -5 -25 -12 -25 -41 l0 -35 135 0 135 0 0 36 c0 27 -5 37 -19 41 -26 7
-31 30 -31 149 0 113 1 115 67 134 68 21 73 11 73 -136 0 -98 -3 -126 -16
-138 -8 -9 -20 -16 -25 -16 -5 0 -9 -16 -9 -35 l0 -35 135 0 135 0 0 35 c0 29
-4 36 -26 41 -36 9 -44 39 -44 175 0 130 -9 163 -54 192 -48 32 -133 29 -218
-8 -17 -7 -18 2 -18 109 l0 116 -32 -1 c-18 0 -44 -5 -58 -10z"/>
<path d="M169 896 c-115 -41 -168 -154 -123 -266 22 -54 57 -73 214 -115 185
-49 208 -70 155 -134 -69 -81 -253 -24 -315 99 -19 38 -20 38 -52 27 -18 -6
-35 -13 -37 -14 -2 -1 6 -28 17 -60 11 -32 28 -84 38 -115 15 -53 19 -58 45
-58 15 0 32 7 37 16 8 14 15 13 73 -6 212 -72 417 95 343 280 -22 55 -70 81
-219 120 -66 18 -129 37 -140 42 -46 24 -47 61 -2 89 68 43 191 2 246 -83 23
-35 24 -36 55 -23 17 7 31 17 31 22 0 4 -13 47 -28 96 -26 83 -29 87 -56 87
-16 0 -31 -7 -35 -15 -4 -12 -11 -12 -48 5 -50 23 -144 26 -199 6z"/>
<path d="M900 721 c-67 -25 -70 -25 -70 -5 0 15 -9 16 -67 10 -144 -14 -143
-14 -143 -55 0 -33 4 -38 32 -46 39 -12 46 -32 46 -135 0 -100 -7 -122 -46
-139 -27 -12 -32 -20 -32 -48 l0 -33 140 0 140 0 0 34 c0 26 -5 36 -20 41 -27
9 -31 33 -28 149 3 93 5 100 28 117 42 29 67 32 89 10 19 -19 21 -33 21 -136
0 -111 -1 -115 -25 -131 -19 -12 -25 -25 -25 -50 l0 -34 135 0 135 0 0 35 c0
29 -4 36 -25 41 -14 3 -30 14 -35 24 -6 10 -10 73 -10 140 0 137 -11 175 -60
203 -46 28 -116 31 -180 8z"/>
<path d="M1405 731 c-80 -20 -125 -67 -125 -130 0 -35 31 -61 70 -61 36 1 60
23 60 57 0 38 16 53 60 53 46 0 60 -15 60 -61 l0 -36 -55 -7 c-93 -11 -175
-51 -202 -99 -7 -12 -12 -42 -13 -66 0 -37 5 -49 35 -77 55 -51 146 -55 235
-9 22 11 28 11 48 -6 36 -29 86 -34 137 -14 25 9 47 21 51 26 9 15 -36 63 -59
64 -21 0 -22 4 -27 148 l-5 149 -31 28 c-48 42 -157 61 -239 41z m113 -346
c-24 -23 -65 -26 -88 -7 -42 34 -8 86 65 102 29 6 30 5 33 -39 2 -27 -2 -49
-10 -56z"/>
<path d="M2089 731 c-14 -5 -35 -14 -47 -20 -18 -10 -22 -9 -22 4 0 18 -38 20
-145 4 l-75 -11 0 -37 c0 -33 3 -38 33 -46 l32 -10 0 -230 0 -229 -32 -10
c-29 -8 -33 -13 -33 -42 l0 -34 145 0 145 0 0 35 c0 24 -5 35 -15 35 -32 0
-55 38 -55 91 0 48 1 51 23 45 101 -28 174 -13 233 49 59 61 81 177 53 278
-27 99 -139 158 -240 128z m45 -92 c35 -16 51 -63 50 -147 0 -56 -5 -78 -20
-99 -29 -39 -65 -48 -109 -27 l-36 17 3 115 3 115 35 18 c41 22 42 22 74 8z"/>
<path d="M2536 730 c-104 -32 -156 -136 -106 -217 25 -42 60 -59 159 -76 48
-8 90 -21 99 -31 16 -16 15 -19 -7 -37 -26 -21 -90 -26 -124 -8 -12 6 -36 24
-52 40 -26 24 -36 28 -68 22 -30 -4 -37 -9 -32 -22 4 -9 12 -42 18 -73 l11
-57 71 -2 c177 -4 199 -2 242 19 60 31 83 68 83 135 0 82 -27 110 -128 133
-140 31 -153 35 -159 51 -9 22 23 43 64 43 37 0 82 -20 102 -44 14 -17 58 -21
78 -8 9 6 11 24 5 68 -6 52 -10 59 -31 62 -13 2 -28 -1 -33 -6 -6 -6 -26 -5
-55 4 -51 16 -94 17 -137 4z"/>
<path d="M3663 728 c-50 -11 -108 -61 -118 -101 -9 -35 16 -74 52 -83 40 -10
75 14 89 61 10 37 14 40 48 43 49 4 68 -12 64 -57 -3 -35 -3 -35 -71 -47 -76
-14 -145 -44 -172 -74 -11 -12 -20 -41 -23 -73 -4 -46 -1 -57 23 -85 47 -56
145 -65 230 -22 37 19 38 19 64 -1 42 -31 91 -34 145 -11 25 12 46 25 46 30 0
15 -50 57 -68 57 -15 0 -18 18 -22 149 l-6 148 -31 28 c-49 44 -153 60 -250
38z m137 -289 c0 -48 -1 -51 -36 -65 -32 -14 -38 -13 -60 1 -13 8 -24 24 -24
35 0 26 33 58 67 66 16 3 33 7 38 9 6 2 11 4 13 4 1 1 2 -22 2 -50z"/>
<path d="M4668 727 c-104 -30 -163 -112 -162 -227 1 -72 24 -131 71 -175 78
-74 225 -85 317 -24 46 31 92 94 75 104 -52 33 -59 33 -90 4 -16 -15 -50 -35
-74 -45 -77 -29 -118 3 -132 102 l-6 44 167 0 166 0 0 43 c0 61 -44 127 -103
156 -57 28 -164 36 -229 18z m133 -94 c55 -33 45 -43 -42 -43 l-79 0 16 24
c24 38 62 44 105 19z"/>
<path d="M4134 720 c-67 -10 -74 -15 -74 -51 0 -25 6 -32 31 -41 40 -14 49
-41 48 -141 -1 -110 -8 -129 -47 -141 -28 -8 -32 -13 -32 -42 l0 -34 150 0
150 0 0 35 c0 28 -4 35 -19 35 -43 0 -51 24 -51 152 l0 121 43 -8 c69 -13 99
-10 119 15 23 29 23 51 -3 84 -25 32 -86 36 -142 7 -36 -18 -37 -18 -37 0 0
16 -7 19 -42 18 -24 -1 -66 -5 -94 -9z"/>
</g>
</svg>
